<svg width="670" height="96" viewBox="0 0 670 96" fill="none" xmlns="http://www.w3.org/2000/svg">
<path d="M26.35 16.51C40.73 16.51 52.35 27.06 52.35 41.44C52.2998 48.1072 49.6147 54.484 44.8805 59.1788C40.1463 63.8736 33.7474 66.5055 27.08 66.5C20.78 66.5 14.68 64.72 10.08 59.5H9.54V95.86H0V45.41C0 27.81 10.13 16.51 26.37 16.51M26.23 58.08C35.75 58.08 42.23 50.55 42.23 41.44C42.23 32.33 35.86 24.93 26.23 24.93C16.6 24.93 9.93 32.33 9.93 41.37C9.93 50.41 16.64 58.08 26.23 58.08Z" fill="#8C64D8"/>
<path d="M61.29 41.51C61.29 27.13 73.35 16.51 87.52 16.51C101.69 16.51 113.75 27.13 113.75 41.51C113.75 55.89 101.7 66.51 87.52 66.51C73.34 66.51 61.29 55.9 61.29 41.51ZM87.52 58.08C97.11 58.08 103.62 50.68 103.62 41.51C103.62 32.34 97.11 24.93 87.52 24.93C77.93 24.93 71.43 32.26 71.43 41.51C71.43 50.76 77.93 58.08 87.52 58.08Z" fill="#8C64D8"/>
<path d="M149.16 66.5C134.09 66.5 122.65 55.96 122.65 41.5C122.65 27.04 133.82 16.5 148.81 16.5C160.32 16.5 171.07 22.73 173.81 34.58H163.95C161.55 28.21 155.8 24.92 149.09 24.92C138.95 24.92 132.79 32.46 132.79 41.63C132.79 50.95 139.16 58.07 149.29 58.07C155.87 58.07 161.83 55.07 164.15 48.14H174.08C170.52 60.74 160.25 66.49 149.16 66.49" fill="#8C64D8"/>
<path d="M209.63 59.59L193.88 26.64H193.6V65.48H184.36V17.54H199.08L214.7 50.34H214.97L230.58 17.54H245.31V65.48H236.06V26.64H235.79L220.04 59.59H209.63Z" fill="#8C64D8"/>
<path d="M255.58 41.51C255.58 27.13 267.58 16.51 281.81 16.51C296.04 16.51 308.04 27.13 308.04 41.51C308.04 55.89 295.99 66.51 281.81 66.51C267.63 66.51 255.58 55.9 255.58 41.51ZM281.81 58.08C291.4 58.08 297.9 50.68 297.9 41.51C297.9 32.34 291.4 24.93 281.81 24.93C272.22 24.93 265.72 32.26 265.72 41.51C265.72 50.76 272.22 58.08 281.81 58.08Z" fill="#8C64D8"/>
<path d="M312.9 65.86V55.96H313.11C314.138 55.9504 315.154 55.7328 316.095 55.3203C317.037 54.9079 317.886 54.3091 318.59 53.56C320.37 51.56 321.26 48.01 322.21 42.81L323.58 35.14C325.16 26.3 328.31 17.33 341.58 17.33H360.27V65.48H350.68V26.23H343.22C335.75 26.23 334.22 28.29 332.4 38.49L331.17 45.68C330.07 52.26 328.43 57.94 325 61.57C322.4 64.31 318.77 65.89 313.91 65.89L312.9 65.86Z" fill="#8C64D8"/>
<path d="M370.91 41.51C370.91 27.13 382.96 16.51 397.14 16.51C411.32 16.51 423.37 27.13 423.37 41.51C423.37 55.89 411.31 66.51 397.14 66.51C382.97 66.51 370.91 55.9 370.91 41.51ZM397.14 58.08C406.73 58.08 413.23 50.68 413.23 41.51C413.23 32.34 406.73 24.93 397.14 24.93C387.55 24.93 381.04 32.26 381.04 41.51C381.04 50.76 387.55 58.08 397.14 58.08Z" fill="#8C64D8"/>
<path d="M434.46 77.12H425.22V56.57H431.45C434.19 53.49 435.63 48.9 436.93 43.36L438.93 34.45C440.93 25.89 444.62 17.33 456.46 17.33H475.09V56.57H482.01V77.12H472.76V65.48H434.46V77.12ZM465.69 56.78V26.1H456.69C450.87 26.1 448.88 30.75 447.69 35.69L445.56 44.93C444.4 50.07 442.62 54.31 440.84 56.09V56.78H465.69Z" fill="#8C64D8"/>
<path d="M515.55 66.5C500.27 66.5 489.18 55.96 489.18 41.5C489.18 27.04 500.34 16.5 515.18 16.5C526.69 16.5 540.52 24.03 540.52 42.25V44.25H498.77C499.77 52.25 506.03 58.08 515.48 58.08C521.09 58.08 527.8 56.03 529.65 51.16H539.51C536.51 61.71 525.34 66.5 515.51 66.5M498.86 0H508.79V9.93001H498.86V0ZM530.5 36.92C529 29.66 523.38 24.8 515.03 24.8C511.39 24.6777 507.82 25.8175 504.924 28.0263C502.028 30.2351 499.984 33.3771 499.14 36.92H530.5ZM520.44 0H530.37V9.93001H520.44V0Z" fill="#8C64D8"/>
<path d="M585.74 17.54V36.57H593.75L605.05 17.54H615.6L601.56 40.41L616.76 65.48H606.01L593.89 45.27H585.74V65.48H576.7V45.27H568.55L556.43 65.48H545.68L560.88 40.41L546.84 17.54H557.39L568.69 36.57H576.7V17.54H585.74Z" fill="#8C64D8"/>
<path d="M623.48 43.86L623.35 17.54H632.94L633 31.17H633.28C635.09 28.8424 637.418 26.9694 640.08 25.7003C642.741 24.4313 645.662 23.8011 648.61 23.86C660.39 23.86 669.91 32.62 669.91 44.86C669.91 57.1 660.18 66.5 646.83 66.5C633.48 66.5 623.54 56.98 623.48 43.9M646.62 58.08C654.23 58.08 659.77 52.74 659.77 45.27C659.77 37.8 654.23 32.33 646.62 32.33C644.898 32.268 643.181 32.5593 641.575 33.1858C639.969 33.8124 638.509 34.7609 637.283 35.9731C636.058 37.1853 635.094 38.6355 634.45 40.2344C633.806 41.8332 633.497 43.5469 633.54 45.27C633.54 52.74 639.09 58.08 646.62 58.08Z" fill="#8C64D8"/>
</svg>
